<svg id="Layer_1" data-name="Layer 1" xmlns="http://www.w3.org/2000/svg" xmlns:xlink="http://www.w3.org/1999/xlink" viewBox="0 0 1080 1080"><defs><style>.cls-1{fill:none;stroke:#757575;stroke-miterlimit:10;stroke-width:77.75px;}.cls-2{fill:url(#linear-gradient);}.cls-3{fill:url(#linear-gradient-2);}.cls-4{fill:url(#linear-gradient-3);}.cls-5{fill:url(#linear-gradient-4);}.cls-6{fill:url(#linear-gradient-5);}.cls-7{fill:#a5a4a4;}</style><linearGradient id="linear-gradient" x1="378.65" y1="663.4" x2="445.65" y2="1025.4" gradientTransform="translate(108.62 -44.64) rotate(7.11)" gradientUnits="userSpaceOnUse"><stop offset="0" stop-color="#ccc"/><stop offset="1" stop-color="#aaa"/></linearGradient><linearGradient id="linear-gradient-2" x1="421.44" y1="345.84" x2="452.02" y2="272.82" gradientTransform="matrix(1, 0, 0, 1, 0, 0)" xlink:href="#linear-gradient"/><linearGradient id="linear-gradient-3" x1="687.6" y1="469.24" x2="996.6" y2="727.24" gradientUnits="userSpaceOnUse"><stop offset="0" stop-color="#e84624"/><stop offset="1" stop-color="#e72750"/></linearGradient><linearGradient id="linear-gradient-4" x1="419.58" y1="395.94" x2="446.48" y2="476.06" gradientTransform="matrix(1, 0, 0, 1, 0, 0)" xlink:href="#linear-gradient"/><linearGradient id="linear-gradient-5" x1="683.1" y1="185.25" x2="1029.79" y2="185.25" xlink:href="#linear-gradient-3"/></defs><path class="cls-1" d="M223.5,755.39,203.92,598.45C190.16,488.16,257.46,389,354.24,376.88s186.4,67.55,200.16,177.84L574,711.65"/><rect class="cls-2" x="174.01" y="658.54" width="478.92" height="386" transform="translate(-102.26 57.75) rotate(-7.11)"/><circle cx="406.89" cy="798.77" r="79.46"/><polygon points="400.77 749.72 351.05 993 508.74 973.32 400.77 749.72"/><path class="cls-3" d="M714.93,495.32l-71.08-57.65L101,212.12c35.88-38.5,86.81-56.87,131.58-44.26l456.75,189c-7.69,52.28,57.93,109.93,57.93,109.93l-32.32,28.58"/><path class="cls-4" d="M978.51,559.45C925.69,518.84,715.7,420.67,715.7,420.67l-39.93,53.5c79.56,55.73,37.31,143.25,82.17,202,31.15,40.8,117.27,92.7,182.47,74.13S1039.75,606.55,978.51,559.45ZM950.47,669c-14.24,28.74-53.72,35.89-106.54,7.76-36.42-19.4-70.19-53.55-43.45-98.32,19.17-32.12,70.65-22.47,102.74-4.13C947.34,599.55,966.6,636.47,950.47,669Z"/><path class="cls-5" d="M723.79,269.55l-75.38,51.89L89.54,503.72c32.75,41.2,82.08,63.5,127.71,54.44L687.4,405.62c-3.57-52.73,66.37-105.06,66.37-105.06l-30-31"/><path class="cls-6" d="M968.58,33C905,9.4,815.11,54.39,780.85,92.62c-49.33,55.06-14.07,145.62-97.75,194.94L718.71,344s217-81.4,272.88-117.75C1056.34,184.13,1032.12,56.66,968.58,33ZM917.71,205.52c-33.44,15.76-85.51,21.35-102.11-12.17-23.14-46.73,13.21-78.12,51-94.61,54.85-23.91,93.66-13.68,105.59,16.09C985.76,148.57,963.67,183.85,917.71,205.52Z"/><circle class="cls-7" cx="623.48" cy="376.86" r="29.29"/><path class="cls-1" d="M203.92,598.45C190.16,488.16,257.46,389,354.24,376.88"/></svg>