<?xml version="1.0" encoding="utf-8"?>
<!-- Generator: Adobe Illustrator 27.6.1, SVG Export Plug-In . SVG Version: 6.00 Build 0)  -->
<svg version="1.1" id="Layer_1" xmlns="http://www.w3.org/2000/svg" xmlns:xlink="http://www.w3.org/1999/xlink" x="0px" y="0px"
	 width="48px" height="48px" viewBox="0 0 48 48" style="enable-background:new 0 0 48 48;" xml:space="preserve">
<style type="text/css">
	.st0{fill:none;stroke:#757575;stroke-width:3.7627;stroke-miterlimit:10;}
	.st1{fill:url(#SVGID_1_);}
	.st2{fill:url(#SVGID_00000051348998156374639430000013614085089264128662_);}
	.st3{fill:url(#SVGID_00000056394453903367993070000013551132066309760685_);}
	.st4{fill:url(#SVGID_00000003080510395059836930000009224636286581890992_);}
	.st5{fill:url(#SVGID_00000005948048741234714030000011176906780882361257_);}
	.st6{fill:#A5A4A4;}
</style>
<path class="st0" d="M6.8,33.4l-1-7.2c-0.7-5.1,2.7-9.6,7.7-10.2c4.9-0.6,9.5,3.1,10.2,8.2l1,7.2"/>
<linearGradient id="SVGID_1_" gradientUnits="userSpaceOnUse" x1="14.8962" y1="18.0107" x2="18.0498" y2="0.972" gradientTransform="matrix(1 0 0 -1 -5.509142e-04 47.0089)">
	<stop  offset="0" style="stop-color:#CCCCCC"/>
	<stop  offset="1" style="stop-color:#AAAAAA"/>
</linearGradient>
<polygon class="st1" points="3.2,30.4 27.4,27.7 29.9,45.3 5.6,48 "/>
<ellipse cx="16.2" cy="35.4" rx="4.1" ry="3.6"/>
<polygon points="15.9,33.2 13.4,44.3 21.4,43.4 "/>
<linearGradient id="SVGID_00000031198184000715518310000007223327714147210886_" gradientUnits="userSpaceOnUse" x1="17.1416" y1="32.7853" x2="18.5626" y2="36.1783" gradientTransform="matrix(1 0 0 -1 0 47)">
	<stop  offset="0" style="stop-color:#CCCCCC"/>
	<stop  offset="1" style="stop-color:#AAAAAA"/>
</linearGradient>
<path style="fill:url(#SVGID_00000031198184000715518310000007223327714147210886_);" d="M31.9,21.5l-3.6-2.6L0.6,8.5
	c1.8-1.8,4.4-2.6,6.7-2l23.3,8.7c-0.4,2.4,3,5,3,5L31.9,21.5"/>
<linearGradient id="SVGID_00000154403849832545963140000007489449390722294189_" gradientUnits="userSpaceOnUse" x1="31.0464" y1="27.0895" x2="46.0439" y2="14.5673" gradientTransform="matrix(1 0 0 -1 0 47)">
	<stop  offset="0" style="stop-color:#E84624"/>
	<stop  offset="1" style="stop-color:#E72750"/>
</linearGradient>
<path style="fill:url(#SVGID_00000154403849832545963140000007489449390722294189_);" d="M45.4,24.5C42.7,22.6,32,18.1,32,18.1
	l-2,2.5c4.1,2.6,1.9,6.6,4.2,9.3c1.6,1.9,6,4.3,9.3,3.4S48.5,26.6,45.4,24.5z M44,29.5c-0.7,1.3-2.7,1.6-5.4,0.4
	c-1.9-0.9-3.6-2.5-2.2-4.5c1-1.5,3.6-1,5.2-0.2C43.8,26.3,44.8,28,44,29.5z"/>
<linearGradient id="SVGID_00000006708851213417670980000014124338058110457784_" gradientUnits="userSpaceOnUse" x1="16.9827" y1="29.6809" x2="18.2309" y2="25.9634" gradientTransform="matrix(1 0 0 -1 0 47)">
	<stop  offset="0" style="stop-color:#CCCCCC"/>
	<stop  offset="1" style="stop-color:#AAAAAA"/>
</linearGradient>
<path style="fill:url(#SVGID_00000006708851213417670980000014124338058110457784_);" d="M32.4,11.2l-3.8,2.4L0,21.9
	c1.7,1.9,4.2,2.9,6.5,2.5l24-7c-0.2-2.4,3.4-4.8,3.4-4.8L32.4,11.2"/>
<linearGradient id="SVGID_00000054981178435096180500000016394504889234583702_" gradientUnits="userSpaceOnUse" x1="30.3015" y1="39.716" x2="48" y2="39.716" gradientTransform="matrix(1 0 0 -1 0 47)">
	<stop  offset="0" style="stop-color:#E84624"/>
	<stop  offset="1" style="stop-color:#E72750"/>
</linearGradient>
<path style="fill:url(#SVGID_00000054981178435096180500000016394504889234583702_);" d="M44.9,0.3c-3.2-1.1-7.8,1-9.6,2.7
	c-2.5,2.5-0.7,6.7-5,8.9l1.8,2.6c0,0,11.1-3.7,13.9-5.4C49.4,7.2,48.1,1.4,44.9,0.3z M42.3,8.2c-1.7,0.7-4.4,1-5.2-0.6
	c-1.2-2.1,0.7-3.6,2.6-4.3c2.8-1.1,4.8-0.6,5.4,0.7C45.8,5.6,44.6,7.2,42.3,8.2z"/>
<ellipse class="st6" cx="27.3" cy="16.1" rx="1.5" ry="1.3"/>
<path class="st0" d="M5.8,26.2c-0.7-5.1,2.7-9.6,7.7-10.2"/>
</svg>
